<svg id="_ÎÓÈ_1" data-name="—ÎÓÈ_1" xmlns="http://www.w3.org/2000/svg" viewBox="0 0 364.55 364.55"><defs><style>.cls-1{fill:#fff;}.cls-2{fill:#040507;opacity:0;}.cls-10,.cls-11,.cls-13,.cls-14,.cls-15,.cls-16,.cls-17,.cls-18,.cls-19,.cls-2,.cls-20,.cls-21,.cls-22,.cls-23,.cls-24,.cls-3,.cls-5,.cls-6,.cls-7,.cls-8{fill-rule:evenodd;}.cls-3{fill:#080a0d;opacity:0.01;}.cls-4{fill:#0b0e14;opacity:0.01;}.cls-5{fill:#0f131b;opacity:0.01;}.cls-6{fill:#131822;opacity:0.02;}.cls-7{fill:#171d29;opacity:0.02;}.cls-8{fill:#1b2230;opacity:0.02;}.cls-9{fill:#1f2737;opacity:0.03;}.cls-10{fill:#232c3f;opacity:0.03;}.cls-11{fill:#273246;opacity:0.03;}.cls-12{fill:#2b374d;opacity:0.04;}.cls-13{fill:#2f3c54;opacity:0.04;}.cls-14{fill:#34415c;opacity:0.04;}.cls-15{fill:#384763;opacity:0.05;}.cls-16{fill:#30383b;}.cls-17{fill:#2c3e50;}.cls-18{fill:#222f3b;}.cls-19{fill:#293845;}.cls-20{fill:#40576e;}.cls-21{fill:gray;}.cls-22{fill:#e6eaeb;}.cls-23{fill:#9eb4ba;}.cls-24{fill:#c5ccd1;}</style></defs><title>headphones</title><circle class="cls-1" cx="182.28" cy="182.28" r="257.78"/><path class="cls-2" d="M102,252.13c-44.53,25.72-44.53,67.42,0,93.13s116.72,25.72,161.25,0,44.53-67.41,0-93.13S146.5,226.42,102,252.13Z" transform="translate(-0.32 0)"/><path class="cls-3" d="M107.37,255.25c-41.54,24-41.54,62.9,0,86.9s108.9,24,150.45,0,41.54-62.9,0-86.9S148.91,231.26,107.37,255.25Z" transform="translate(-0.32 0)"/><ellipse class="cls-4" cx="182.28" cy="298.7" rx="98.74" ry="57.03"/><path class="cls-5" d="M118.18,261.49c-35.58,20.55-35.58,53.87,0,74.41s93.26,20.55,128.83,0,35.58-53.86,0-74.41S153.75,241,118.18,261.49Z" transform="translate(-0.32 0)"/><path class="cls-6" d="M123.58,264.61C91,283.44,91,314,123.58,332.78s85.44,18.83,118,0,32.59-49.34,0-68.17S156.17,245.79,123.58,264.61Z" transform="translate(-0.32 0)"/><path class="cls-7" d="M129,267.73c-29.61,17.11-29.61,44.83,0,61.93s77.62,17.1,107.23,0,29.61-44.82,0-61.93S158.59,250.63,129,267.73Z" transform="translate(-0.32 0)"/><path class="cls-8" d="M134.38,270.85c-26.62,15.38-26.62,40.31,0,55.69s69.8,15.38,96.43,0,26.62-40.31,0-55.69S161,255.48,134.38,270.85Z" transform="translate(-0.32 0)"/><ellipse class="cls-9" cx="182.28" cy="298.7" rx="60.54" ry="34.97"/><path class="cls-10" d="M145.19,277.09c-20.66,11.93-20.66,31.28,0,43.21s54.15,11.93,74.81,0,20.66-31.28,0-43.21S165.85,265.16,145.19,277.09Z" transform="translate(-0.32 0)"/><path class="cls-11" d="M150.59,280.21c-17.67,10.21-17.67,26.76,0,37s46.33,10.21,64,0,17.67-26.76,0-37S168.27,270,150.59,280.21Z" transform="translate(-0.32 0)"/><ellipse class="cls-12" cx="182.28" cy="298.7" rx="37.62" ry="21.73"/><path class="cls-13" d="M161.4,286.45c-11.71,6.76-11.71,17.73,0,24.49s30.69,6.76,42.39,0,11.71-17.73,0-24.49S173.1,279.69,161.4,286.45Z" transform="translate(-0.32 0)"/><path class="cls-14" d="M166.8,289.57c-8.73,5-8.73,13.21,0,18.25s22.87,5,31.59,0,8.72-13.21,0-18.25S175.52,284.53,166.8,289.57Z" transform="translate(-0.32 0)"/><path class="cls-15" d="M172.2,292.69c-5.74,3.32-5.74,8.69,0,12s15.05,3.31,20.79,0,5.74-8.69,0-12S177.94,289.38,172.2,292.69Z" transform="translate(-0.32 0)"/><polygon class="cls-16" points="109.74 275.2 112.74 274.6 114.22 270.21 113.21 268.87 112.23 267.47 111.3 266.03 110.4 264.54 109.54 263 108.72 261.43 107.94 259.82 107.2 258.17 106.5 256.49 105.84 254.78 105.23 253.04 104.67 251.28 104.14 249.5 103.66 247.71 103.23 245.9 102.84 244.07 102.47 242.07 102.15 240.07 101.89 238.06 101.69 236.06 101.55 234.05 101.46 232.05 101.44 230.07 101.47 228.1 101.57 226.15 101.72 224.21 101.94 222.31 102.22 220.44 102.57 218.59 102.98 216.79 103.45 215.03 103.99 213.31 107 204.42 103.95 200.94 100.95 201.54 104 205.02 100.99 213.91 100.45 215.63 99.97 217.39 99.57 219.19 99.22 221.04 98.94 222.91 98.72 224.81 98.56 226.75 98.47 228.7 98.44 230.67 98.46 232.65 98.55 234.65 98.69 236.65 98.89 238.66 99.15 240.67 99.47 242.67 99.84 244.67 100.23 246.5 100.66 248.31 101.14 250.1 101.66 251.88 102.23 253.64 102.84 255.38 103.5 257.09 104.19 258.77 104.93 260.42 105.71 262.03 106.53 263.6 107.39 265.14 108.29 266.63 109.23 268.07 110.21 269.47 111.22 270.81 109.74 275.2"/><path class="cls-17" d="M98.26,210.43c-3.47,10.26-3.72,22.83-1.31,34.88,2.23,11.18,6.76,21.9,13.11,29.89l1.48-4.39c-5.51-7-9.44-16.38-11.39-26.14-2.12-10.62-1.9-21.72,1.16-30.76l3-8.89-3.06-3.48Z" transform="translate(-0.32 0)"/><path class="cls-18" d="M116.31,292.2a16.2,16.2,0,1,1,18.41-13.66A16.2,16.2,0,0,1,116.31,292.2Z" transform="translate(-0.32 0)"/><path class="cls-19" d="M115,288.82a13.92,13.92,0,1,1,15.81-11.74A13.91,13.91,0,0,1,115,288.82Z" transform="translate(-0.32 0)"/><path class="cls-20" d="M107.58,266.09c4.36-4.26,9.73-1.89,8.86,4a6.34,6.34,0,0,1-7.2,5.35C103.56,274.56,104.53,269.07,107.58,266.09Z" transform="translate(-0.32 0)"/><polygon class="cls-20" points="259.55 197.26 244.02 188.29 242.9 187.93 241.74 187.64 240.54 187.45 239.29 187.34 238.01 187.32 236.7 187.39 235.35 187.56 233.97 187.81 232.57 188.16 231.13 188.61 229.67 189.15 228.19 189.79 226.68 190.53 225.15 191.37 223.63 192.29 222.12 193.29 220.63 194.37 219.17 195.52 217.74 196.73 216.33 198 214.95 199.34 213.6 200.73 212.29 202.17 211.01 203.67 209.77 205.21 208.56 206.8 207.4 208.42 206.28 210.09 205.2 211.79 204.17 213.52 203.19 215.27 202.25 217.06 201.37 218.86 200.55 220.68 199.77 222.51 199.06 224.36 198.4 226.22 197.81 228.08 197.28 229.94 196.81 231.81 196.41 233.66 196.08 235.51 195.82 237.35 195.63 239.18 195.51 240.98 195.48 242.77 195.51 244.51 195.63 246.18 195.82 247.79 196.08 249.32 196.41 250.79 196.81 252.18 197.28 253.51 197.81 254.75 198.4 255.93 199.06 257.03 199.77 258.05 200.55 258.99 201.37 259.86 202.25 260.64 217.78 269.61 216.9 268.82 216.07 267.96 215.3 267.01 214.59 265.99 213.93 264.89 213.34 263.72 212.8 262.47 212.34 261.15 211.94 259.75 211.61 258.29 211.34 256.75 211.16 255.15 211.04 253.47 211 251.73 211.04 249.95 211.16 248.14 211.34 246.31 211.61 244.48 211.94 242.63 212.34 240.77 212.8 238.91 213.34 237.04 213.93 235.18 214.59 233.33 215.3 231.48 216.07 229.64 216.9 227.82 217.78 226.02 218.71 224.24 219.7 222.48 220.73 220.75 221.8 219.05 222.93 217.39 224.09 215.76 225.29 214.17 226.54 212.63 227.81 211.14 229.13 209.69 230.48 208.3 231.86 206.97 233.26 205.69 234.7 204.48 236.16 203.34 237.65 202.26 239.15 201.26 240.68 200.33 242.21 199.5 243.71 198.76 245.2 198.12 246.66 197.57 248.09 197.13 249.5 196.78 250.88 196.52 252.23 196.36 253.54 196.28 254.82 196.3 256.06 196.41 257.27 196.61 258.43 196.89 259.55 197.26"/><path class="cls-21" d="M241,268.85c16.38-9.46,29.66-32.45,29.66-51.38s-13.28-26.6-29.66-17.14-29.68,32.48-29.68,51.4S224.61,278.31,241,268.85Z" transform="translate(-0.32 0)"/><polygon class="cls-22" points="153.59 132.36 136.87 122.7 135.66 122.3 134.41 122 133.11 121.79 131.77 121.67 130.39 121.65 128.98 121.73 127.53 121.91 126.04 122.18 124.53 122.56 122.98 123.04 121.41 123.63 119.81 124.31 118.18 125.11 116.54 126.01 114.89 127.01 113.27 128.09 111.67 129.25 110.1 130.48 108.55 131.78 107.03 133.16 105.55 134.59 104.1 136.09 102.68 137.65 101.3 139.26 99.96 140.92 98.67 142.63 97.41 144.38 96.21 146.18 95.05 148.01 93.94 149.87 92.88 151.76 91.87 153.68 90.92 155.63 90.03 157.59 89.2 159.56 88.43 161.56 87.72 163.56 87.08 165.56 86.51 167.57 86.01 169.57 85.58 171.57 85.22 173.57 84.94 175.55 84.73 177.51 84.61 179.46 84.57 181.38 84.61 183.26 84.73 185.06 84.94 186.79 85.22 188.44 85.58 190.02 86.01 191.53 86.51 192.95 87.08 194.29 87.72 195.56 88.43 196.74 89.2 197.84 90.03 198.86 90.92 199.79 91.87 200.64 108.6 210.3 107.65 209.45 106.76 208.52 105.92 207.5 105.16 206.4 104.45 205.22 103.81 203.95 103.24 202.61 102.73 201.18 102.3 199.68 101.95 198.1 101.66 196.45 101.46 194.72 101.34 192.91 101.3 191.04 101.34 189.12 101.46 187.17 101.66 185.2 101.95 183.22 102.3 181.23 102.73 179.23 103.24 177.22 103.81 175.22 104.45 173.21 105.16 171.21 105.92 169.22 106.76 167.24 107.65 165.28 108.6 163.34 109.6 161.42 110.66 159.53 111.77 157.66 112.93 155.83 114.14 154.04 115.39 152.29 116.69 150.58 118.03 148.92 119.41 147.31 120.82 145.75 122.28 144.25 123.76 142.81 125.28 141.44 126.82 140.14 128.4 138.9 130 137.74 131.62 136.66 133.26 135.67 134.91 134.77 136.53 133.97 138.13 133.28 139.71 132.7 141.25 132.22 142.77 131.84 144.25 131.56 145.71 131.38 147.12 131.31 148.5 131.33 149.84 131.44 151.13 131.65 152.39 131.96 153.59 132.36"/><path class="cls-23" d="M133.58,209.48c17.65-10.19,32-34.95,32-55.35s-14.31-28.65-32-18.46-32,35-32,55.37S115.93,219.67,133.58,209.48Z" transform="translate(-0.32 0)"/><polygon class="cls-22" points="268.36 198.62 251.63 188.96 250.42 188.56 249.17 188.26 247.87 188.04 246.53 187.93 245.16 187.91 243.74 187.99 242.29 188.16 240.81 188.44 239.29 188.82 237.74 189.3 236.17 189.88 234.57 190.57 232.95 191.37 231.3 192.27 229.66 193.27 228.03 194.35 226.43 195.5 224.86 196.74 223.31 198.04 221.8 199.42 220.31 200.85 218.86 202.35 217.44 203.91 216.06 205.52 214.73 207.18 213.43 208.89 212.18 210.64 210.97 212.44 209.81 214.27 208.7 216.13 207.64 218.02 206.63 219.94 205.69 221.88 204.79 223.85 203.96 225.82 203.19 227.81 202.49 229.81 201.84 231.82 201.27 233.83 200.77 235.83 200.34 237.83 199.98 239.82 199.7 241.81 199.5 243.77 199.37 245.72 199.33 247.64 199.37 249.52 199.5 251.32 199.7 253.05 199.98 254.7 200.34 256.28 200.77 257.79 201.27 259.21 201.84 260.55 202.49 261.82 203.19 263 203.96 264.1 204.79 265.12 205.69 266.05 206.63 266.9 223.36 276.56 222.41 275.71 221.52 274.78 220.69 273.76 219.92 272.66 219.21 271.48 218.57 270.21 218 268.87 217.5 267.44 217.06 265.94 216.71 264.36 216.43 262.7 216.22 260.98 216.1 259.17 216.06 257.3 216.1 255.37 216.22 253.43 216.43 251.46 216.71 249.48 217.06 247.49 217.5 245.49 218 243.48 218.57 241.47 219.21 239.47 219.92 237.47 220.69 235.48 221.52 233.5 222.41 231.54 223.36 229.6 224.37 227.68 225.42 225.79 226.53 223.92 227.69 222.09 228.9 220.3 230.16 218.55 231.45 216.84 232.79 215.18 234.17 213.57 235.59 212.01 237.04 210.51 238.52 209.07 240.04 207.7 241.59 206.4 243.16 205.16 244.76 204 246.38 202.92 248.03 201.93 249.67 201.03 251.29 200.23 252.89 199.54 254.47 198.96 256.01 198.48 257.53 198.1 259.01 197.82 260.47 197.64 261.88 197.57 263.26 197.59 264.6 197.7 265.89 197.91 267.15 198.22 268.36 198.62"/><path class="cls-23" d="M248.35,275.74c17.65-10.19,32-35,32-55.35s-14.3-28.65-32-18.46-32,35-32,55.37S230.69,285.93,248.35,275.74Z" transform="translate(-0.32 0)"/><path class="cls-18" d="M146.71,96.47l.67-2.33.78-2.21.89-2.09,1-2,1.1-1.84,1.19-1.71,1.29-1.57.4-.43h0c-11.8,2.65-19.87,13.21-21.15,29.94-.12,1.55-.18,15.46-.18,17.12,0,2.23.08,4.19.29,6.46V136l.58-.34a30.59,30.59,0,0,1,12.52-4.29h0C144.34,123.42,144.84,104.79,146.71,96.47Z" transform="translate(-0.32 0)"/><path class="cls-18" d="M194.74,68l-3.14-1.72-3.1-1.52-3.06-1.31-3-1.12-3-.92-2.9-.72-2.84-.53L171,59.8l-2.71-.15-2.63,0-2.56.22-2.48.41-2.39.58-2.31.76-2.21.94-2.13,1.11-12.46,7.2,2.12-1.11,2.22-.94,2.3-.76,2.4-.59,2.48-.4,2.55-.22,2.64,0,2.7.15,2.78.34,2.83.53,2.9.72,3,.92,3,1.11L176,71.94l3.1,1.52,3.15,1.72,3.14,1.91,3.1,2.06,3.06,2.21,3,2.36,3,2.5,2.9,2.62,2.84,2.75,2.77,2.86,2.7,3,2.64,3.07,2.56,3.18,2.47,3.27,2.4,3.34,2.31,3.43,2.21,3.5,2.13,3.56,2,3.62,1.92,3.66,1.81,3.71,1.7,3.75,1.59,3.78,1.47,3.81,1.35,3.82,1.23,3.83,1.09,3.83,1,3.83.83,3.82.68,3.81.53,3.78.39,3.76.24,16,.08,3.67v1.79l0,.88,0,.87,0,.87-.06.85a30.76,30.76,0,0,1,12.47-4.28l0-3.77.05-.86,0-.88,0-.88,0-.89v-.89l-.08-16-.23-3.72-.39-3.75-.54-3.79-.68-3.8-.82-3.83-1-3.83-1.1-3.83-1.22-3.83-1.35-3.82-1.47-3.8-1.59-3.78-1.7-3.75-1.82-3.71L240,117.2l-2-3.62L235.81,110l-2.22-3.5-2.3-3.42-2.4-3.35-2.48-3.27-2.56-3.17-2.63-3.08-2.71-3-2.77-2.86-2.84-2.75L210,79l-3-2.5-3-2.35L201,72l-3.1-2.06Z" transform="translate(-0.32 0)"/><polygon class="cls-20" points="155.85 138.54 152.25 136.46 151.15 136.1 150.02 135.82 148.84 135.63 147.63 135.53 146.38 135.51 145.1 135.58 143.78 135.74 142.44 135.99 141.06 136.34 139.66 136.77 138.24 137.3 136.79 137.93 135.32 138.64 133.83 139.46 132.34 140.36 130.87 141.34 129.42 142.39 127.99 143.51 126.59 144.69 125.22 145.94 123.87 147.24 122.56 148.6 121.27 150.01 120.02 151.47 118.81 152.97 117.64 154.52 116.5 156.11 115.41 157.73 114.35 159.39 113.35 161.08 112.39 162.79 111.48 164.53 110.62 166.29 109.81 168.07 109.06 169.86 108.36 171.67 107.72 173.48 107.14 175.29 106.62 177.11 106.17 178.93 105.77 180.74 105.45 182.55 105.2 184.34 105.01 186.12 104.9 187.89 104.86 189.63 104.9 191.33 105.01 192.96 105.2 194.53 105.45 196.03 105.77 197.46 106.17 198.82 106.62 200.11 107.14 201.33 107.72 202.48 108.36 203.55 109.06 204.54 109.81 205.47 110.62 206.31 111.48 207.08 115.08 209.16 114.22 208.39 113.42 207.55 112.66 206.63 111.97 205.63 111.33 204.56 110.75 203.41 110.23 202.19 109.77 200.9 109.38 199.54 109.06 198.11 108.8 196.61 108.62 195.04 108.51 193.41 108.47 191.71 108.51 189.97 108.62 188.21 108.8 186.42 109.06 184.63 109.38 182.82 109.77 181.01 110.23 179.19 110.75 177.38 111.33 175.56 111.97 173.75 112.66 171.94 113.42 170.15 114.22 168.38 115.08 166.62 116 164.88 116.95 163.16 117.96 161.47 119.01 159.81 120.11 158.19 121.24 156.6 122.42 155.05 123.63 153.55 124.88 152.09 126.16 150.68 127.48 149.32 128.82 148.02 130.2 146.77 131.6 145.59 133.02 144.47 134.47 143.43 135.94 142.45 137.43 141.54 138.92 140.73 140.4 140.01 141.84 139.38 143.27 138.85 144.67 138.42 146.04 138.07 147.39 137.82 148.71 137.66 149.99 137.59 151.24 137.61 152.45 137.72 153.62 137.91 154.76 138.19 155.85 138.54"/><path class="cls-18" d="M137.75,208.42c16-9.23,29-31.67,29-50.15s-13-26-29-16.73-29,31.71-29,50.17S121.76,217.66,137.75,208.42Z" transform="translate(-0.32 0)"/><path class="cls-19" d="M137.75,199.65c11.8-6.81,21.36-23.36,21.36-37s-9.56-19.15-21.36-12.34-21.36,23.38-21.36,37S126,206.46,137.75,199.65Z" transform="translate(-0.32 0)"/><polygon class="cls-20" points="154.19 150.03 153.93 149.8 154.88 151.06 155.78 152.69 156.5 154.55 157.02 156.61 157.35 158.87 157.46 161.33 157.43 162.61 157.35 163.91 157.21 165.23 157.02 166.55 156.78 167.88 156.5 169.22 156.16 170.56 155.78 171.9 155.35 173.24 154.88 174.57 154.37 175.9 153.81 177.22 153.21 178.53 152.58 179.83 151.91 181.11 151.2 182.38 150.46 183.62 149.69 184.84 148.88 186.04 148.04 187.21 147.18 188.35 146.28 189.46 145.36 190.54 144.41 191.58 143.44 192.58 142.45 193.54 141.44 194.46 140.41 195.33 139.35 196.15 138.28 196.93 137.2 197.65 136.1 198.32 133.92 199.45 131.8 200.3 129.75 200.88 127.79 201.18 125.92 201.22 124.16 201 122.51 200.53 121 199.82 119.62 198.86 119.5 198.75 119.72 199.01 120.95 200.2 122.33 201.15 123.85 201.87 125.49 202.34 127.25 202.55 129.12 202.51 131.08 202.21 133.13 201.63 135.25 200.78 137.43 199.65 138.53 198.98 139.62 198.26 140.69 197.49 141.74 196.66 142.77 195.79 143.78 194.88 144.78 193.91 145.75 192.91 146.69 191.87 147.61 190.8 148.51 189.69 149.38 188.54 150.21 187.38 151.02 186.18 151.79 184.96 152.53 183.71 153.24 182.45 153.91 181.16 154.55 179.87 155.14 178.56 155.7 177.24 156.21 175.91 156.69 174.57 157.11 173.23 157.49 171.89 157.83 170.55 158.12 169.21 158.36 167.88 158.54 166.56 158.68 165.25 158.76 163.94 158.79 162.66 158.68 160.2 158.36 157.94 157.83 155.88 157.11 154.03 156.21 152.39 155.14 150.97 154.19 150.03"/><path class="cls-17" d="M182.28,75.18c-33.73-19.47-61.08-3.68-61.08,35.27l0,14.91c0,1.42.1,2.54.21,4L133,136a64.22,64.22,0,0,1-.31-6.61c0-1.66.06-15.57.18-17.12,2.15-28.09,23.44-38.82,49.41-23.83,26.36,15.22,47.91,51.4,49.49,82.3.06,1.2.1,14.72.1,15.91,0,1.94-.09,3.81-.25,5.61l.85.62,10.71,5.66c.12-1.7.18-3.45.18-5.26s-.07-16.18-.2-18.14C240.64,137.42,214.34,93.69,182.28,75.18Z" transform="translate(-0.32 0)"/><polygon class="cls-22" points="265.42 212.3 263.83 211.38 263.05 210.97 262.24 210.63 261.39 210.35 260.52 210.14 259.61 209.99 258.67 209.91 257.71 209.9 256.72 209.95 255.7 210.07 254.66 210.27 253.6 210.53 252.52 210.87 251.41 211.28 250.29 211.76 249.16 212.31 248.01 212.94 246.86 213.64 245.72 214.4 244.6 215.21 243.5 216.07 242.41 216.99 241.35 217.95 240.31 218.96 239.3 220 238.31 221.09 237.34 222.22 236.4 223.39 235.5 224.58 234.62 225.81 233.77 227.07 232.96 228.35 232.18 229.65 231.44 230.98 230.74 232.32 230.07 233.68 229.45 235.06 228.87 236.44 228.33 237.83 227.84 239.23 227.39 240.64 226.99 242.04 226.63 243.44 226.33 244.84 226.08 246.24 225.89 247.63 225.74 249 225.66 250.36 225.63 251.71 225.66 253.02 225.74 254.28 225.89 255.5 226.08 256.65 226.33 257.76 226.63 258.81 226.99 259.81 227.39 260.75 227.84 261.64 228.33 262.47 228.87 263.24 229.45 263.95 230.07 264.6 230.74 265.19 231.44 265.73 232.18 266.19 233.78 267.11 233.03 266.64 232.33 266.11 231.67 265.52 231.04 264.87 230.46 264.16 229.92 263.39 229.43 262.56 228.98 261.67 228.58 260.73 228.23 259.73 227.93 258.68 227.68 257.57 227.48 256.42 227.34 255.21 227.25 253.94 227.22 252.63 227.25 251.28 227.34 249.92 227.48 248.54 227.68 247.16 227.93 245.76 228.23 244.36 228.58 242.96 228.98 241.56 229.43 240.15 229.92 238.75 230.46 237.36 231.04 235.97 231.67 234.6 232.33 233.24 233.03 231.9 233.78 230.57 234.55 229.27 235.37 227.99 236.21 226.73 237.09 225.5 238 224.31 238.93 223.14 239.9 222.01 240.89 220.93 241.91 219.88 242.95 218.87 244.01 217.91 245.09 216.99 246.19 216.13 247.31 215.32 248.45 214.56 249.6 213.87 250.75 213.23 251.89 212.68 253.01 212.2 254.11 211.79 255.19 211.45 256.25 211.19 257.29 210.99 258.31 210.87 259.3 210.81 260.26 210.83 261.2 210.91 262.11 211.06 262.99 211.27 263.83 211.55 264.64 211.9 265.42 212.3"/><path class="cls-24" d="M249.92,265.54c12.35-7.13,22.37-24.47,22.37-38.75s-10-20.06-22.37-12.93-22.38,24.5-22.38,38.77S237.56,272.67,249.92,265.54Z" transform="translate(-0.32 0)"/></svg>