<svg id="_ÎÓÈ_1" data-name="—ÎÓÈ_1" xmlns="http://www.w3.org/2000/svg" viewBox="0 0 364.55 364.55"><defs><style>.cls-1{fill:#fff;}.cls-2{fill:#040507;opacity:0;}.cls-10,.cls-11,.cls-13,.cls-14,.cls-15,.cls-16,.cls-17,.cls-18,.cls-19,.cls-2,.cls-20,.cls-3,.cls-5,.cls-6,.cls-7,.cls-8{fill-rule:evenodd;}.cls-3{fill:#080a0d;opacity:0.01;}.cls-4{fill:#0b0e14;opacity:0.01;}.cls-5{fill:#0f131b;opacity:0.01;}.cls-6{fill:#131822;opacity:0.02;}.cls-7{fill:#171d29;opacity:0.02;}.cls-8{fill:#1b2230;opacity:0.02;}.cls-9{fill:#1f2737;opacity:0.03;}.cls-10{fill:#232c3f;opacity:0.03;}.cls-11{fill:#273246;opacity:0.03;}.cls-12{fill:#2b374d;opacity:0.04;}.cls-13{fill:#2f3c54;opacity:0.04;}.cls-14{fill:#34415c;opacity:0.04;}.cls-15{fill:#384763;opacity:0.05;}.cls-16{fill:#e6eaeb;}.cls-17{fill:#c0392b;}.cls-18{fill:#bdbdbd;}.cls-19{fill:#9c9c9c;}.cls-20{fill:#e74c3c;}</style></defs><title>mail</title><circle class="cls-1" cx="182.28" cy="182.28" r="257.78"/><path class="cls-2" d="M102.23,252.71c-44.53,25.72-44.53,67.41,0,93.13s116.72,25.72,161.25,0,44.53-67.41,0-93.13S146.76,227,102.23,252.71Z" transform="translate(-0.58 -0.58)"/><path class="cls-3" d="M107.63,255.83c-41.55,24-41.55,62.9,0,86.89s108.9,24,150.45,0,41.54-62.89,0-86.89S149.17,231.84,107.63,255.83Z" transform="translate(-0.58 -0.58)"/><ellipse class="cls-4" cx="182.28" cy="298.7" rx="98.74" ry="57.03"/><path class="cls-5" d="M118.43,262.07c-35.57,20.55-35.57,53.86,0,74.41s93.26,20.55,128.84,0,35.58-53.86,0-74.41S154,241.52,118.43,262.07Z" transform="translate(-0.58 -0.58)"/><path class="cls-6" d="M123.84,265.19c-32.6,18.82-32.6,49.35,0,68.17s85.44,18.82,118,0,32.59-49.34,0-68.17S156.43,246.37,123.84,265.19Z" transform="translate(-0.58 -0.58)"/><path class="cls-7" d="M129.24,268.31c-29.61,17.1-29.61,44.83,0,61.93s77.62,17.1,107.23,0,29.61-44.83,0-61.93S158.85,251.21,129.24,268.31Z" transform="translate(-0.58 -0.58)"/><path class="cls-8" d="M134.64,271.43c-26.62,15.38-26.62,40.31,0,55.69s69.8,15.38,96.42,0,26.63-40.31,0-55.69S161.27,256.05,134.64,271.43Z" transform="translate(-0.58 -0.58)"/><ellipse class="cls-9" cx="182.28" cy="298.7" rx="60.54" ry="34.97"/><path class="cls-10" d="M145.45,277.67c-20.66,11.93-20.66,31.28,0,43.21s54.15,11.93,74.81,0,20.66-31.28,0-43.21S166.11,265.74,145.45,277.67Z" transform="translate(-0.58 -0.58)"/><path class="cls-11" d="M150.85,280.79c-17.68,10.21-17.68,26.76,0,37s46.33,10.21,64,0,17.67-26.76,0-37S168.53,270.58,150.85,280.79Z" transform="translate(-0.58 -0.58)"/><ellipse class="cls-12" cx="182.28" cy="298.7" rx="37.62" ry="21.73"/><path class="cls-13" d="M161.65,287c-11.7,6.76-11.7,17.72,0,24.49s30.69,6.76,42.4,0,11.71-17.73,0-24.49S173.36,280.27,161.65,287Z" transform="translate(-0.58 -0.58)"/><path class="cls-14" d="M167.06,290.15c-8.73,5-8.73,13.21,0,18.24s22.86,5,31.59,0,8.72-13.2,0-18.24S175.78,285.11,167.06,290.15Z" transform="translate(-0.58 -0.58)"/><path class="cls-15" d="M172.46,293.27c-5.74,3.31-5.74,8.69,0,12s15,3.32,20.79,0,5.74-8.69,0-12S178.2,290,172.46,293.27Z" transform="translate(-0.58 -0.58)"/><path class="cls-16" d="M122.76,76,93.91,92.69h0l-.32.16c-1.55.9-2.54,2.75-2.66,5.36v11.56h0v72.15h0v11.56a19.05,19.05,0,0,0,2.66,8.43,18.76,18.76,0,0,0,6.43,6.8l136.69,78.91c2.5,1.45,4.78,1.58,6.43.63l.28-.18h0l28.85-16.66.27-.2.26-.22.24-.24.22-.27.22-.28.19-.31.18-.33.16-.35.15-.37.13-.38.11-.41.09-.42.07-.45.05-.46,0-.48V254.69h0q0-41.87,0-83.72l0-.52-.05-.52-.07-.53-.09-.53-.11-.53-.13-.54-.14-.53-.17-.54-.18-.53-.19-.54-.21-.53-.23-.52-.24-.53-.26-.51-.27-.52-.28-.5-.32-.53-.33-.52L271,161l-.36-.49-.37-.49-.38-.48-.39-.45-.41-.45-.41-.43-.42-.41-.43-.39-.44-.37-.45-.35-.45-.33L266,156l-.46-.28L128.87,76.83l-.46-.26-.47-.23-.45-.19L127,76l-.44-.13-.43-.11-.42-.08-.41,0-.41,0h-.39l-.38,0-.37.06-.36.09-.34.11Z" transform="translate(-0.58 -0.58)"/><polygon class="cls-17" points="245.22 187.04 274.07 170.39 274.07 181.95 245.22 198.61 245.22 187.04"/><polygon class="cls-18" points="93.33 92.11 122.18 75.46 122.51 75.32 122.86 75.2 123.21 75.11 123.58 75.06 123.96 75.02 124.36 75.02 124.76 75.04 125.17 75.09 125.6 75.17 126.03 75.27 126.47 75.41 126.91 75.57 127.37 75.77 127.83 75.99 128.3 76.25 264.98 155.16 265.45 155.45 265.91 155.75 266.36 156.09 266.81 156.44 267.25 156.81 267.68 157.2 268.11 157.61 268.52 158.04 268.92 158.48 269.31 158.94 269.69 159.41 270.06 159.9 270.42 160.4 270.76 160.91 271.1 161.43 271.41 161.96 271.69 162.47 271.96 162.98 272.22 163.5 272.46 164.02 272.69 164.55 272.9 165.08 273.1 165.61 273.28 166.15 273.44 166.68 273.58 167.22 273.71 167.75 273.82 168.29 273.91 168.82 273.99 169.35 274.04 169.87 274.07 170.39 245.22 187.04 245.19 186.53 245.13 186 245.06 185.48 244.97 184.94 244.86 184.41 244.73 183.88 244.59 183.34 244.42 182.81 244.25 182.27 244.05 181.74 243.84 181.21 243.61 180.68 243.37 180.16 243.11 179.64 242.84 179.13 242.56 178.62 242.24 178.09 241.91 177.57 241.57 177.06 241.21 176.56 240.84 176.07 240.46 175.6 240.07 175.14 239.67 174.69 239.25 174.27 238.83 173.86 238.4 173.47 237.96 173.09 237.51 172.74 237.06 172.41 236.6 172.11 236.13 171.82 99.44 92.91 98.98 92.65 98.52 92.43 98.06 92.23 97.61 92.07 97.17 91.93 96.74 91.82 96.32 91.75 95.91 91.69 95.5 91.67 95.11 91.68 94.73 91.71 94.36 91.77 94 91.86 93.66 91.97 93.33 92.11"/><polygon class="cls-19" points="245.23 198.6 274.08 181.95 274.08 254.1 274.07 254.11 274.07 265.65 274.04 266.13 273.99 266.6 273.91 267.04 273.82 267.46 273.71 267.87 273.58 268.26 273.44 268.63 273.28 268.98 273.1 269.3 272.9 269.61 272.69 269.9 272.46 270.16 272.22 270.4 271.96 270.63 271.69 270.83 242.84 287.49 243.11 287.29 243.37 287.06 243.61 286.82 243.84 286.55 244.05 286.27 244.25 285.96 244.42 285.63 244.59 285.29 244.73 284.92 244.86 284.53 244.97 284.12 245.06 283.7 245.13 283.25 245.19 282.79 245.22 282.31 245.22 270.75 245.23 270.74 245.23 198.6"/><path class="cls-16" d="M93.59,201.9a19.05,19.05,0,0,1-2.66-8.43l47.94-14.16,22.5,32.62a22.63,22.63,0,0,0,7,6.78c2.45,1.42,4.9,1.92,7,1.29l22.49-6.64,47.94,69.52c-.11,2.62-1.11,4.47-2.65,5.36s-3.93.82-6.43-.63L100,208.7A18.76,18.76,0,0,1,93.59,201.9Z" transform="translate(-0.58 -0.58)"/><polygon class="cls-16" points="245.23 198.6 245.23 270.76 245.22 270.75 245.22 282.31 197.28 212.78 203.9 210.82 245.23 198.6"/><polygon class="cls-16" points="90.35 192.9 90.35 181.33 90.34 181.34 90.34 109.18 131.67 169.12 138.3 178.73 90.35 192.9"/><path class="cls-16" d="M100,93.48,236.71,172.4a18.6,18.6,0,0,1,6.43,6.8,19,19,0,0,1,2.65,8.42v11.56L175.36,220c-2.1.63-4.55.13-7-1.29a22.63,22.63,0,0,1-7-6.78c-72.1-104.55-1.38-2-70.44-102.16V98.21c.12-2.61,1.11-4.46,2.66-5.36S97.52,92,100,93.48Z" transform="translate(-0.58 -0.58)"/><path class="cls-20" d="M90.93,109.77V98.21l72.81,105.6a15,15,0,0,0,4.62,4.48,6,6,0,0,0,4.62.85l72.81-21.52v11.56L175.36,220c-2.1.63-4.55.13-7-1.29a22.63,22.63,0,0,1-7-6.78C89.27,107.38,160,209.94,90.93,109.77Z" transform="translate(-0.58 -0.58)"/><polygon class="cls-19" points="243.21 179.84 272.07 163.18 272.22 163.5 272.46 164.02 272.69 164.55 272.9 165.08 273.1 165.61 273.28 166.15 273.44 166.68 273.58 167.22 273.71 167.75 273.82 168.29 273.91 168.82 273.99 169.35 274.04 169.87 274.07 170.39 245.22 187.04 245.19 186.53 245.13 186 245.06 185.48 244.97 184.94 244.86 184.41 244.73 183.88 244.59 183.34 244.42 182.8 244.25 182.27 244.05 181.74 243.84 181.21 243.61 180.68 243.37 180.16 243.21 179.84"/></svg>