<svg id="Layer_1" data-name="Layer 1" xmlns="http://www.w3.org/2000/svg" xmlns:xlink="http://www.w3.org/1999/xlink" viewBox="0 0 500 500"><defs><style>.cls-1{fill:#fff;}.cls-2{fill:url(#linear-gradient);}.cls-3{fill:url(#radial-gradient);}.cls-4{fill:url(#radial-gradient-2);}.cls-5{fill:url(#radial-gradient-3);}.cls-6{fill:url(#radial-gradient-4);}.cls-7{opacity:0.1;}.cls-8{fill:url(#linear-gradient-2);}.cls-9{fill:#efefef;}.cls-10{fill:#00a5e6;}.cls-11{fill:url(#linear-gradient-3);}.cls-12{fill:url(#linear-gradient-4);}</style><linearGradient id="linear-gradient" x1="177.92" y1="396.29" x2="285.1" y2="143.98" gradientTransform="matrix(-1, 0, 0, 1, 500, 0)" gradientUnits="userSpaceOnUse"><stop offset="0" stop-color="#2781dc"/><stop offset="0.01" stop-color="#2d84dd"/><stop offset="0.08" stop-color="#5099e3"/><stop offset="0.15" stop-color="#69a7e7"/><stop offset="0.22" stop-color="#78b0e9"/><stop offset="0.27" stop-color="#7db3ea"/><stop offset="0.31" stop-color="#73ade8"/><stop offset="0.39" stop-color="#579de4"/><stop offset="0.48" stop-color="#2a83dc"/><stop offset="0.49" stop-color="#2781dc"/><stop offset="0.54" stop-color="#3e8ee0"/><stop offset="0.64" stop-color="#6aa8e7"/><stop offset="0.74" stop-color="#8cbced"/><stop offset="0.84" stop-color="#a5caf1"/><stop offset="0.93" stop-color="#b4d3f3"/><stop offset="1" stop-color="#b9d6f4"/></linearGradient><radialGradient id="radial-gradient" cx="303.99" cy="252.35" r="147.05" gradientTransform="matrix(-1, 0, 0, 1, 500, 0)" gradientUnits="userSpaceOnUse"><stop offset="0.16" stop-color="#137cf4"/><stop offset="0.3" stop-color="#3e93f4"/><stop offset="0.46" stop-color="#6aabf4"/><stop offset="0.61" stop-color="#8cbef4"/><stop offset="0.76" stop-color="#a5cbf4"/><stop offset="0.89" stop-color="#b4d3f4"/><stop offset="1" stop-color="#b9d6f4"/></radialGradient><radialGradient id="radial-gradient-2" cx="271.02" cy="317.32" r="134.04" xlink:href="#radial-gradient"/><radialGradient id="radial-gradient-3" cx="406.72" cy="246.58" r="109.3" xlink:href="#radial-gradient"/><radialGradient id="radial-gradient-4" cx="359.78" cy="300.19" r="139.37" xlink:href="#radial-gradient"/><linearGradient id="linear-gradient-2" x1="289.19" y1="299.08" x2="261.1" y2="308.23" gradientTransform="matrix(-1, 0, 0, 1, 500, 0)" gradientUnits="userSpaceOnUse"><stop offset="0" stop-color="#e0e0e0"/><stop offset="0.29" stop-color="#dadada"/><stop offset="0.66" stop-color="#cacaca"/><stop offset="1" stop-color="#b5b5b5"/></linearGradient><linearGradient id="linear-gradient-3" x1="289.19" y1="258.69" x2="261.1" y2="267.85" xlink:href="#linear-gradient-2"/><linearGradient id="linear-gradient-4" x1="289.19" y1="218.31" x2="261.1" y2="227.46" xlink:href="#linear-gradient-2"/></defs><title>data-backup</title><rect class="cls-1" width="500" height="500"/><path class="cls-2" d="M194.46,152.23c5.62.48.39-3.55.39-3.55s24.77-20.46,47.2-24.06c47.18-11.14,112.8,21.27,118.59,103.55,22.15,21.8,43.29,57.53,38.73,103.94-5.22,35.31-40,44.7-40,44.7s-15.47-54.64-22.78-59L175,227l-60.67-34.52S138.75,160.84,194.46,152.23Z"/><path class="cls-3" d="M329.21,274.9c-7.88,25.4-163-33.2-167.62-74.27C165.13,105.52,341.77,122.18,329.21,274.9Z"/><path class="cls-4" d="M366.34,365.45c-4.09,22-20.84,11.73-64.54-13.5,0,0-90-55.34-90-71.75C211.94,174.72,392.1,216.29,366.34,365.45Z"/><path class="cls-5" d="M229.77,295.35c-4.28,13.79-47.91-24.72-95.71-40.25,0,0-34.77-16.71-34-28.43C103,146.58,240.26,167.74,229.77,295.35Z"/><path class="cls-6" d="M301.8,352,134.06,255.1C137.8,154.55,315,191.42,301.8,352Z"/><path class="cls-7" d="M232.69,152.33c15.94-6.59,43.24,5,60.64,26.83,8.93,11.22,13.21,22.66,12.81,31.9,0,.37-1,22.35-1,23.33a21.17,21.17,0,0,1-1.54,7.53c.67,3,1.17,1.56,1.05,4.15,0,.36-.92,21.59-1,22.54a19.58,19.58,0,0,1-1.5,7.21,31.1,31.1,0,0,1,.86,8.11c0,.34-.89,20.77-.91,21.68-.21,8.54-4.91,14.24-13.81,15.09-16.77,1.61-41.83-14.64-56.39-35.64-7.12-10.28-10.64-20.05-10.64-27.68v-20h0a20.76,20.76,0,0,1,.93-6.52,32.85,32.85,0,0,1-.94-7.36V206.61h0a22.43,22.43,0,0,1,.94-6.77,33.69,33.69,0,0,1-1-7.54V170.94h0C221.25,162.41,225,155.52,232.69,152.33Z"/><path class="cls-8" d="M259,272c9.68,5.59,16.6,10.39,16.6,10.39s0,24.58,0,25.49c.18,8.52-5.35,17.07-16.6,23.57-22.15,12.78-58.06,12.78-80.21,0-11.08-6.4-16.61-14.78-16.61-23.16v-25.6A173.33,173.33,0,0,1,178.76,272C200.91,259.19,236.82,259.19,259,272Z"/><path class="cls-9" d="M178.76,259.21c22.15-12.78,58.06-12.78,80.21,0s22.14,33.52,0,46.31-58.06,12.79-80.21,0S156.61,272,178.76,259.21Z"/><path class="cls-10" d="M254.6,264.15c8.63,5,14.8,9.26,14.8,9.26s0,5.62,0,6.43c.17,7.59-4.76,15.2-14.79,21-19.74,11.39-51.74,11.39-71.47,0-9.87-5.7-14.8-13.17-14.8-20.64v-6.52a155.4,155.4,0,0,1,14.8-9.53C202.86,252.76,234.86,252.76,254.6,264.15Z"/><path class="cls-11" d="M259,231.59c9.68,5.6,16.6,10.39,16.6,10.39s0,24.59,0,25.5c.18,8.52-5.35,17.06-16.6,23.56-22.15,12.79-58.06,12.79-80.21,0-11.08-6.39-16.61-14.77-16.61-23.15v-25.6a174.36,174.36,0,0,1,16.61-10.7C200.91,218.81,236.82,218.81,259,231.59Z"/><path class="cls-9" d="M178.76,218.83c22.15-12.79,58.06-12.79,80.21,0s22.14,33.52,0,46.31-58.06,12.78-80.21,0S156.61,231.62,178.76,218.83Z"/><path class="cls-10" d="M254.6,223.77c8.63,5,14.8,9.26,14.8,9.26s0,5.61,0,6.43c.17,7.59-4.76,15.2-14.79,21-19.74,11.4-51.74,11.4-71.47,0-9.87-5.69-14.8-13.16-14.8-20.63V233.3a155.4,155.4,0,0,1,14.8-9.53C202.86,212.38,234.86,212.38,254.6,223.77Z"/><path class="cls-12" d="M259,191.21c9.68,5.59,16.6,10.39,16.6,10.39s0,24.59,0,25.5c.18,8.52-5.35,17.06-16.6,23.56-22.15,12.79-58.06,12.79-80.21,0-11.08-6.39-16.61-14.77-16.61-23.15V201.9a175.78,175.78,0,0,1,16.61-10.69C200.91,178.42,236.82,178.42,259,191.21Z"/><path class="cls-9" d="M178.76,178.45c22.15-12.79,58.06-12.79,80.21,0s22.14,33.52,0,46.31-58.06,12.78-80.21,0S156.61,191.24,178.76,178.45Z"/></svg>