<svg id="_ÎÓÈ_1" data-name="—ÎÓÈ_1" xmlns="http://www.w3.org/2000/svg" viewBox="0 0 364.55 364.55"><defs><style>.cls-1{fill:#fff;}.cls-2{fill:#040507;opacity:0;}.cls-10,.cls-11,.cls-13,.cls-14,.cls-15,.cls-16,.cls-17,.cls-18,.cls-19,.cls-2,.cls-20,.cls-21,.cls-3,.cls-5,.cls-6,.cls-7,.cls-8{fill-rule:evenodd;}.cls-3{fill:#080a0d;opacity:0.01;}.cls-4{fill:#0b0e14;opacity:0.01;}.cls-5{fill:#0f131b;opacity:0.01;}.cls-6{fill:#131822;opacity:0.02;}.cls-7{fill:#171d29;opacity:0.02;}.cls-8{fill:#1b2230;opacity:0.02;}.cls-9{fill:#1f2737;opacity:0.03;}.cls-10{fill:#232c3f;opacity:0.03;}.cls-11{fill:#273246;opacity:0.03;}.cls-12{fill:#2b374d;opacity:0.04;}.cls-13{fill:#2f3c54;opacity:0.04;}.cls-14{fill:#34415c;opacity:0.04;}.cls-15{fill:#384763;opacity:0.05;}.cls-16{fill:#9c9c9c;}.cls-17{fill:#e6eaeb;}.cls-18{fill:#2c3e50;}.cls-19{fill:#3d566e;}.cls-20{fill:#ffcb05;}.cls-21{fill:#c93e3e;}</style></defs><title>web-design</title><circle class="cls-1" cx="182.28" cy="182.28" r="257.78"/><path class="cls-2" d="M101.65,252.13c-44.53,25.72-44.53,67.42,0,93.13s116.72,25.72,161.25,0,44.53-67.41,0-93.13S146.18,226.42,101.65,252.13Z" transform="translate(0 0)"/><path class="cls-3" d="M107.05,255.25c-41.54,24-41.54,62.9,0,86.9s108.9,24,150.45,0,41.54-62.9,0-86.9S148.6,231.26,107.05,255.25Z" transform="translate(0 0)"/><ellipse class="cls-4" cx="182.28" cy="298.7" rx="98.74" ry="57.03"/><path class="cls-5" d="M117.86,261.49c-35.58,20.55-35.58,53.87,0,74.41s93.26,20.55,128.83,0,35.58-53.86,0-74.41S153.43,241,117.86,261.49Z" transform="translate(0 0)"/><path class="cls-6" d="M123.26,264.61c-32.59,18.83-32.59,49.35,0,68.17s85.44,18.83,118,0,32.6-49.34,0-68.17S155.85,245.79,123.26,264.61Z" transform="translate(0 0)"/><path class="cls-7" d="M128.66,267.73c-29.61,17.1-29.61,44.83,0,61.93s77.62,17.1,107.23,0,29.61-44.83,0-61.93S158.27,250.63,128.66,267.73Z" transform="translate(0 0)"/><path class="cls-8" d="M134.07,270.85c-26.63,15.38-26.63,40.31,0,55.69s69.79,15.38,96.42,0,26.62-40.31,0-55.69S160.69,255.48,134.07,270.85Z" transform="translate(0 0)"/><ellipse class="cls-9" cx="182.28" cy="298.7" rx="60.54" ry="34.97"/><path class="cls-10" d="M144.87,277.09c-20.66,11.93-20.66,31.28,0,43.21s54.15,11.93,74.81,0,20.66-31.28,0-43.21S165.53,265.16,144.87,277.09Z" transform="translate(0 0)"/><path class="cls-11" d="M150.27,280.21c-17.67,10.21-17.67,26.76,0,37s46.33,10.21,64,0,17.67-26.76,0-37S168,270,150.27,280.21Z" transform="translate(0 0)"/><ellipse class="cls-12" cx="182.28" cy="298.7" rx="37.62" ry="21.73"/><path class="cls-13" d="M161.08,286.45c-11.71,6.76-11.71,17.73,0,24.49s30.69,6.76,42.39,0,11.71-17.73,0-24.49S172.78,279.69,161.08,286.45Z" transform="translate(0 0)"/><path class="cls-14" d="M166.48,289.57c-8.72,5-8.72,13.21,0,18.25s22.87,5,31.59,0,8.72-13.21,0-18.25S175.2,284.53,166.48,289.57Z" transform="translate(0 0)"/><path class="cls-15" d="M171.88,292.69c-5.74,3.32-5.74,8.69,0,12s15.05,3.31,20.79,0,5.74-8.69,0-12S177.62,289.38,171.88,292.69Z" transform="translate(0 0)"/><polygon class="cls-16" points="234.97 270.9 249.49 262.52 250.72 261.5 251.66 260.06 252.24 258.22 252.45 255.99 252.42 170.6 237.9 178.99 237.93 264.37 237.73 266.6 237.14 268.44 236.21 269.89 234.97 270.9"/><polygon class="cls-17" points="237.9 178.99 252.42 170.6 127.97 98.79 113.45 107.17 237.9 178.99"/><polygon class="cls-18" points="237.9 178.99 252.42 170.6 252.41 142.93 252.35 141.71 252.2 140.47 251.95 139.21 251.61 137.94 251.18 136.68 250.67 135.43 250.09 134.19 249.44 132.99 248.72 131.82 247.94 130.7 247.11 129.63 246.23 128.63 245.3 127.7 244.33 126.86 243.33 126.1 242.3 125.45 138.04 65.31 136.01 64.38 134.12 63.97 132.41 64.05 130.91 64.62 116.4 73 117.89 72.44 119.6 72.35 121.5 72.76 123.53 73.69 227.78 133.83 228.81 134.49 229.82 135.24 230.78 136.09 231.71 137.01 232.59 138.01 233.42 139.08 234.2 140.2 234.92 141.37 235.57 142.57 236.16 143.81 236.66 145.06 237.09 146.33 237.43 147.59 237.68 148.85 237.84 150.09 237.89 151.31 237.9 178.99"/><path class="cls-19" d="M227.79,133.83,123.53,73.69c-5.56-3.21-10.09-.59-10.09,5.84v27.64L237.9,179V151.31C237.88,144.9,233.35,137,227.79,133.83Z" transform="translate(0 0)"/><path class="cls-17" d="M113.45,107.17l0,85.41c0,6.42,4.54,14.28,10.1,17.49l104.26,60.14c5.56,3.2,10.09.58,10.09-5.84l0-85.38Z" transform="translate(0 0)"/><path class="cls-17" d="M161.44,109.76c-2.69-1.55-4.87-.29-4.87,2.82a10.76,10.76,0,0,0,4.87,8.44c2.69,1.56,4.88.3,4.88-2.81A10.81,10.81,0,0,0,161.44,109.76Z" transform="translate(0 0)"/><path class="cls-20" d="M144.65,100.07c-2.69-1.55-4.87-.29-4.87,2.81a10.79,10.79,0,0,0,4.87,8.45c2.69,1.55,4.87.29,4.87-2.82A10.76,10.76,0,0,0,144.65,100.07Z" transform="translate(0 0)"/><path class="cls-21" d="M127.86,90.38c-2.69-1.56-4.87-.3-4.87,2.81a10.76,10.76,0,0,0,4.87,8.44c2.69,1.56,4.87.3,4.87-2.81A10.76,10.76,0,0,0,127.86,90.38Z" transform="translate(0 0)"/><polygon class="cls-19" points="198.92 200.63 198.92 196.13 178.14 184.13 178.14 188.63 198.92 200.63"/><polygon class="cls-19" points="222.11 208.91 222.11 201.93 207.09 186.41 222.11 188.31 222.11 181.37 200.58 179.71 200.58 185.65 222.11 208.91"/></svg>